<svg xmlns="http://www.w3.org/2000/svg" viewBox="0 0 256 256">
  <path fill="#3b82f6" d="M224,72V216a8,8,0,0,1-11.83,7A48,48,0,0,0,188,232a47.53,47.53,0,0,0-52,28.6A8,8,0,0,1,128,264h0a8,8,0,0,1-8-3.4A47.53,47.53,0,0,0,68,232a48,48,0,0,0-24.17-9A8,8,0,0,1,32,216V72a8,8,0,0,1,11.83-7A48,48,0,0,0,68,56,47.53,47.53,0,0,0,120,27.4,8,8,0,0,1,128,24h0a8,8,0,0,1,8,3.4A47.53,47.53,0,0,0,188,56a48,48,0,0,0,24.17,9A8,8,0,0,1,224,72Z" opacity="0.2"/>
  <path fill="#3b82f6" d="M228.48,46.54a8,8,0,0,0-11-2.06A56.12,56.12,0,0,1,188,56a55.51,55.51,0,0,1-48.4,28,8,8,0,0,0-11.2,3l-3-2a8,8,0,0,0-3-11.2A71.21,71.21,0,0,1,188,48a72,72,0,0,1,36.17-9.61,8,8,0,1,1,1.52,15.93Zm-16,155.92A56,56,0,0,0,188,208a55.51,55.51,0,0,0-48.4,28l-3.6,2.4v-114l3.6-2.4A71.53,71.53,0,0,1,188,96a72,72,0,0,1,24.48-4.29Zm-96,30.4L112.88,230.4A55.51,55.51,0,0,0,68,208a56,56,0,0,0-24.48-5.54Zm0-114V236.8l-3.6-2.4A71.53,71.53,0,0,1,68,96a72,72,0,0,1,24.48-4.29l3.6,2.4Z"/>
</svg>
